<?xml version="1.0" encoding="iso-8859-1"?>
<!-- Generator: Adobe Illustrator 18.0.0, SVG Export Plug-In . SVG Version: 6.00 Build 0)  -->
<!DOCTYPE svg PUBLIC "-//W3C//DTD SVG 1.1//EN" "http://www.w3.org/Graphics/SVG/1.1/DTD/svg11.dtd">
<svg version="1.1" id="Capa_1" xmlns="http://www.w3.org/2000/svg" xmlns:xlink="http://www.w3.org/1999/xlink" x="0px" y="0px"
	 viewBox="0 0 29.444 29.444" style="enable-background:new 0 0 29.444 29.444;" xml:space="preserve">
<g>
	<path d="M24.642,0H4.802C2.154,0,0,2.154,0,4.802v19.84c0,2.648,2.154,4.802,4.802,4.802h19.84c2.648,0,4.802-2.154,4.802-4.802
		V4.802C29.444,2.154,27.29,0,24.642,0z M27.486,24.642c0,1.568-1.276,2.844-2.844,2.844H4.802c-1.568,0-2.844-1.276-2.844-2.844
		V4.802c0-1.568,1.276-2.844,2.844-2.844h19.84c1.568,0,2.844,1.276,2.844,2.844V24.642z"/>
	<path d="M24.509,17.903H16.19v-1.957h4.404c0.811,0,1.468-0.657,1.468-1.468c0-0.811-0.657-1.468-1.468-1.468H16.19v-1.957h4.404
		c0.811,0,1.468-0.657,1.468-1.468s-0.657-1.468-1.468-1.468H8.849c-0.811,0-1.468,0.657-1.468,1.468s0.657,1.468,1.468,1.468h4.404
		v1.957H8.849c-0.811,0-1.468,0.657-1.468,1.468c0,0.811,0.657,1.468,1.468,1.468h4.404v1.957H4.934
		c-0.811,0-1.468,0.657-1.468,1.468c0,0.811,0.657,1.468,1.468,1.468h8.319v4.567c0,0.811,0.657,1.468,1.468,1.468
		c0.811,0,1.468-0.657,1.468-1.468V20.84h8.319c0.811,0,1.468-0.657,1.468-1.468C25.977,18.561,25.32,17.903,24.509,17.903z"/>
	<path d="M11.715,6.857c0.278,0.244,0.623,0.364,0.967,0.364c0.408,0,0.815-0.17,1.105-0.501c0.534-0.61,0.473-1.538-0.137-2.072
		l-1.958-1.714C11.083,2.399,10.155,2.46,9.621,3.07C9.086,3.68,9.148,4.608,9.758,5.142L11.715,6.857z"/>
	<path d="M16.761,7.22c0.343,0,0.688-0.12,0.967-0.364l1.958-1.714c0.61-0.534,0.671-1.462,0.137-2.072
		c-0.534-0.609-1.462-0.672-2.072-0.137l-1.957,1.714c-0.61,0.534-0.671,1.462-0.137,2.072C15.947,7.05,16.353,7.22,16.761,7.22z"/>
</g>
</svg>
